<svg id="Layer_1" data-name="Layer 1" xmlns="http://www.w3.org/2000/svg" viewBox="0 0 390.1 329.9"><defs><style>.cls-1{fill:#25baed;}</style></defs><path class="cls-1" d="M394.7,198c0-22.2-16.4-64.3-78.3-64.3H261.2V106.8A71.5,71.5,0,0,0,132.9,63.3,71.4,71.4,0,0,0,52.1,39.5l-4.2,1.6A68,68,0,0,0,40.3,45a49.2,49.2,0,0,0-4.5,2.8L34.2,49h0C5.6,69.3,4.6,101.6,4.6,106.5V182a14.9,14.9,0,0,0,29.7,0V106.8a41.9,41.9,0,0,1,83.7,0V182a14.9,14.9,0,0,0,29.7,0V106.8a41.9,41.9,0,0,1,83.8,0V182a14.9,14.9,0,0,0,29.7,0V164.5h55.2c44.4,0,47.3,28.1,47.4,33.5v22.6a81.4,81.4,0,1,0,.6,126v3.7a14.9,14.9,0,0,0,29.7,0v-31a15.9,15.9,0,0,0,.6-3.8ZM312.8,335.4a51.6,51.6,0,1,1,51-58.6v14A51.5,51.5,0,0,1,312.8,335.4Z" transform="translate(-4.6 -35.3)"/></svg>