<svg id="Layer_1" data-name="Layer 1" xmlns="http://www.w3.org/2000/svg" viewBox="0 0 389.2 162.7"><defs><style>.cls-1{fill:#da2128;}</style></defs><path class="cls-1" d="M238.8,138.1a99.4,99.4,0,0,0-15.9,26.6A41.5,41.5,0,0,0,190,148.6a41.9,41.9,0,0,0-41.8,41.9v76.2a14.9,14.9,0,0,1-29.8,0V190.5a41.9,41.9,0,1,0-83.7,0v76.2a14.9,14.9,0,0,1-29.7,0V190.1c0-4.8,1.1-37.2,29.6-57.6h0l1.6-1.1,4.5-2.9a76.9,76.9,0,0,1,7.6-3.8l4.2-1.7A71.3,71.3,0,0,1,133.3,147a71.4,71.4,0,0,1,105.5-8.9Z" transform="translate(-5 -118.9)"/><path class="cls-1" d="M255.9,278.3a14.8,14.8,0,0,1-24-11.6V253A97.9,97.9,0,0,0,255.9,278.3Z" transform="translate(-5 -118.9)"/><path class="cls-1" d="M379.4,118.9a14.8,14.8,0,0,0-14.9,14.8v3.7a81.3,81.3,0,1,0,0,125.6v3.7a14.9,14.9,0,0,0,29.7,0V200.3h0V133.7A14.8,14.8,0,0,0,379.4,118.9Zm-14.9,81.4a51.6,51.6,0,1,1,0-.2Z" transform="translate(-5 -118.9)"/></svg>